<svg width="90" height="90" viewBox="0 0 90 90" fill="none" xmlns="http://www.w3.org/2000/svg">
<circle cx="45" cy="45" r="45" fill="white"/>
<path d="M29.3125 25.6646C29.3125 26.096 28.9627 26.4458 28.5312 26.4458C28.0998 26.4458 27.75 26.096 27.75 25.6646C27.75 25.2328 28.0998 24.8833 28.5312 24.8833C28.9627 24.8833 29.3125 25.2328 29.3125 25.6646Z" fill="#054A91"/>
<path d="M28.7052 36.4561C29.633 36.4561 30.5367 36.3096 31.4023 36.0198C32.5833 36.6486 33.9023 36.7968 34.8837 36.7968C34.9462 36.7968 35.0072 36.7961 35.0672 36.7951C36.4731 36.7714 36.9171 35.8433 37.0199 35.559C37.1532 35.19 37.3471 34.2316 36.268 33.3025C36.0974 33.155 35.8972 32.9569 35.7229 32.7187C36.6049 31.3885 37.0817 29.828 37.0817 28.2279C37.0817 23.6911 33.324 20 28.7053 20C24.0858 20 20.3281 23.6911 20.3281 28.2282C20.3281 32.765 24.0858 36.4561 28.7052 36.4561ZM28.5309 23.3204C29.8244 23.3204 30.8746 24.3702 30.8746 25.6645C30.8746 26.9581 29.8244 28.0079 28.5309 28.0079C27.2369 28.0079 26.1871 26.9581 26.1871 25.6645C26.1871 24.3702 27.2369 23.3204 28.5309 23.3204ZM24.2368 31.4007V30.4922C24.2368 29.5316 24.7421 28.7015 25.4955 28.1181C25.8404 28.5439 26.2729 28.8937 26.7651 29.1441C26.2088 29.4497 25.7993 29.9292 25.7993 30.4922V31.1322H31.2524V30.4922C31.2524 29.931 30.845 29.4524 30.2911 29.1466C30.7836 28.8969 31.2175 28.5481 31.5624 28.123C32.3122 28.7061 32.8148 29.5341 32.8148 30.4918V31.325C32.8141 31.4167 32.9982 32.6943 32.0014 32.6943L25.4306 32.6947C25.4306 32.6947 25.4128 32.6954 25.3817 32.6954C25.1501 32.6954 24.1784 32.6451 24.2367 31.7917L24.2368 31.4007Z" fill="#054A91"/>
<path d="M62.7119 25.6646C62.7119 26.096 62.3621 26.4458 61.9307 26.4458C61.4992 26.4458 61.1494 26.096 61.1494 25.6646C61.1494 25.2328 61.4992 24.8833 61.9307 24.8833C62.3621 24.8833 62.7119 25.2328 62.7119 25.6646Z" fill="#054A91"/>
<path d="M61.9514 20C57.3326 20 53.5749 23.6911 53.5749 28.2282C53.5749 29.828 54.0517 31.3887 54.9338 32.719C54.759 32.9576 54.5581 33.1564 54.3858 33.305C53.3095 34.2317 53.5035 35.19 53.6367 35.5591C53.7392 35.8433 54.1836 36.7714 55.5916 36.7951C55.6491 36.7962 55.7102 36.7969 55.773 36.7969C56.754 36.7969 58.0735 36.6486 59.2547 36.0198C60.1204 36.3096 61.024 36.4561 61.9518 36.4561C66.5705 36.4561 70.3286 32.7651 70.3286 28.2283C70.3286 23.6911 66.5705 20.0001 61.9514 20.0001L61.9514 20ZM61.9301 23.3204C63.224 23.3204 64.2738 24.3702 64.2738 25.6645C64.2738 26.958 63.224 28.0079 61.9301 28.0079C60.6365 28.0079 59.5863 26.958 59.5863 25.6645C59.5863 24.3702 60.6365 23.3204 61.9301 23.3204ZM66.2242 31.4007V31.7917C66.2824 32.6451 65.3108 32.6953 65.0792 32.6953C65.0481 32.6953 65.0304 32.6946 65.0304 32.6946H58.4595C57.4627 32.6946 57.6468 31.4168 57.6461 31.3254V30.4921C57.6461 29.5344 58.1484 28.7064 58.8985 28.1233C59.2438 28.5481 59.6773 28.8969 60.1698 29.147C59.6159 29.4528 59.2085 29.9314 59.2085 30.4925V31.1325H64.6616V30.4925C64.6616 29.9296 64.2518 29.45 63.6959 29.1445C64.188 28.8937 64.6204 28.5439 64.9654 28.1184C65.7188 28.7019 66.2242 29.532 66.2242 30.4925L66.2242 31.4007Z" fill="#054A91"/>
<path d="M62.0996 53.2462C60.4994 53.2462 58.9387 53.723 57.6088 54.6047C57.3702 54.43 57.1718 54.2291 57.0228 54.0568C56.4156 53.3516 55.7889 53.2026 55.3703 53.2026H55.37C54.5019 53.2026 53.5567 53.8472 53.533 55.2625C53.5135 56.2959 53.6481 57.6889 54.3083 58.9259C54.0185 59.7912 53.872 60.6949 53.872 61.6223C53.8717 66.2414 57.5627 69.9994 62.0995 69.9994C66.6367 69.9994 70.3277 66.2414 70.3277 61.6223C70.3277 57.0035 66.6367 53.2462 62.0996 53.2462ZM62.1243 56.5229C63.4183 56.5229 64.4681 57.5727 64.4681 58.867C64.4681 60.1606 63.4183 61.2104 62.1243 61.2104C60.8311 61.2104 59.7806 60.1606 59.7806 58.867C59.7806 57.5727 60.8311 56.5229 62.1243 56.5229ZM66.4188 64.6033V64.9942C66.4767 65.8477 65.5051 65.8979 65.2734 65.8979C65.2424 65.8979 65.2246 65.8972 65.2246 65.8972H58.6534C57.6569 65.8972 57.8407 64.6194 57.84 64.5279V63.6947C57.84 62.7373 58.3426 61.909 59.0924 61.3259C59.4377 61.7507 59.8713 62.0994 60.3637 62.3495C59.8095 62.6554 59.4024 63.1339 59.4024 63.6951V64.3351H64.8558V63.6951C64.8558 63.1321 64.446 62.6526 63.8894 62.347C64.3815 62.0959 64.8143 61.7464 65.159 61.321C65.9127 61.9045 66.4183 62.7345 66.4183 63.6951L66.4188 64.6033Z" fill="#054A91"/>
<path d="M62.9062 58.8677C62.9062 59.2991 62.5564 59.6489 62.125 59.6489C61.6936 59.6489 61.3438 59.2991 61.3438 58.8677C61.3438 58.4359 61.6936 58.0864 62.125 58.0864C62.5564 58.0864 62.9062 58.4359 62.9062 58.8677Z" fill="#054A91"/>
<path d="M28.5573 70C33.0941 70 36.7852 66.242 36.7852 61.6229C36.7852 60.6954 36.6387 59.7918 36.3489 58.9265C37.0088 57.6895 37.143 56.2961 37.1242 55.2605C37.1001 53.8477 36.1546 53.2031 35.2869 53.2031C34.868 53.2031 34.2413 53.3514 33.6316 54.0601C33.4841 54.2306 33.286 54.4308 33.0478 54.6052C31.7179 53.7235 30.1575 53.2467 28.557 53.2467C24.0202 53.2467 20.3291 57.004 20.3291 61.6228C20.3291 66.2419 24.0202 70 28.5573 70ZM28.5322 56.5232C29.8254 56.5232 30.876 57.573 30.876 58.8673C30.876 60.1609 29.8254 61.2107 28.5322 61.2107C27.2383 61.2107 26.1885 60.1609 26.1885 58.8673C26.1885 57.573 27.2383 56.5232 28.5322 56.5232ZM24.2378 64.6036V63.695C24.2378 62.7345 24.7431 61.9044 25.4969 61.3209C25.8415 61.7467 26.2743 62.0959 26.7661 62.347C26.2098 62.6525 25.8003 63.1321 25.8003 63.695V64.335H31.2537V63.695C31.2537 63.1338 30.8464 62.6553 30.2925 62.3495C30.785 62.0997 31.2188 61.751 31.5637 61.3258C32.3136 61.9089 32.8162 62.7373 32.8162 63.6946V64.5279C32.8155 64.6196 32.9993 65.8971 32.0028 65.8971H25.4316C25.4316 65.8971 25.4138 65.8978 25.3827 65.8978C25.1511 65.8978 24.1794 65.8476 24.2377 64.9942L24.2378 64.6036Z" fill="#054A91"/>
<path d="M29.3125 58.8677C29.3125 59.2991 28.9627 59.6489 28.5312 59.6489C28.0998 59.6489 27.75 59.2991 27.75 58.8677C27.75 58.4359 28.0998 58.0864 28.5312 58.0864C28.9627 58.0864 29.3125 58.4359 29.3125 58.8677Z" fill="#054A91"/>
<path d="M55.8751 45C55.8751 39.1756 51.1527 34.4536 45.3287 34.4536C39.5046 34.4536 34.7822 39.176 34.7822 45C34.7822 50.8241 39.5046 55.5465 45.3287 55.5465C51.1527 55.5465 55.8751 50.8241 55.8751 45ZM38.7242 51.083C38.2715 50.5919 37.8739 50.05 37.5387 49.4671C38.2098 47.627 39.5826 46.0565 41.2595 45.1252C41.6389 45.549 42.0822 45.9131 42.5757 46.2025C40.6323 47.0141 39.0639 48.9093 38.7242 51.0829V51.083ZM41.4223 41.4848C41.4223 39.3283 43.1725 37.5782 45.3286 37.5782C47.4853 37.5782 49.2348 39.3283 49.2348 41.4848C49.2348 43.6412 47.4853 45.3907 45.3286 45.3907C43.1725 45.3907 41.4223 43.6412 41.4223 41.4848ZM47.9768 46.2658C48.4748 45.9885 48.9234 45.6341 49.3108 45.2212C50.9229 46.188 52.3127 47.7662 53.0559 49.5759C52.7294 50.1256 52.3461 50.6373 51.9137 51.1032C51.4153 49.0255 49.7938 47.1247 47.9767 46.2657L47.9768 46.2658Z" fill="#054A91"/>
<path d="M47.6719 41.4849C47.6719 42.7791 46.6224 43.8286 45.3281 43.8286C44.0338 43.8286 42.9844 42.7791 42.9844 41.4849C42.9844 40.1902 44.0338 39.1411 45.3281 39.1411C46.6224 39.1411 47.6719 40.1902 47.6719 41.4849Z" fill="#054A91"/>
</svg>
