<svg width="90" height="90" viewBox="0 0 90 90" fill="none" xmlns="http://www.w3.org/2000/svg">
<circle cx="45" cy="45" r="45" fill="white"/>
<path d="M40.4678 45.599H40.7917L52.6684 46.0309C54.018 46.0847 55.2057 46.6248 56.1234 47.6505C56.1773 47.7044 56.2853 47.8125 56.3934 47.9206L63.6816 45.6532C63.7897 45.5993 63.9516 45.5993 64.0597 45.5993C66.5432 42.792 68.0005 39.1212 68.0005 35.1262C68.0005 26.3807 60.9285 19.3086 52.1829 19.3086C43.4372 19.3086 36.3652 26.3805 36.3652 35.1262C36.3652 39.1751 37.8768 42.8459 40.3602 45.6533L40.4676 45.6529L40.4678 45.599ZM50.725 26.3803V24.9226C50.725 24.5987 50.995 24.3287 51.3188 24.3287H52.9923C53.3161 24.3287 53.5861 24.5987 53.5861 24.9226V26.3803C55.3138 26.5961 56.6635 27.9457 56.8792 29.7273C56.8792 29.8892 56.8254 30.0511 56.7173 30.1592C56.5554 30.213 56.3934 30.3211 56.2315 30.3211H54.5581C54.2881 30.3211 54.0723 30.1592 54.0181 29.8892C53.91 29.4573 53.5323 29.1873 53.1542 29.1873H51.6426C50.8869 29.1873 50.1849 29.7273 50.131 30.483C50.0772 30.9149 50.2391 31.2926 50.5091 31.5626C50.7791 31.8865 51.1568 32.0484 51.5887 32.0484H52.8845C54.0721 32.0484 55.2599 32.5342 56.0695 33.4519C56.8791 34.3696 57.2572 35.5034 57.1491 36.745C56.9872 38.5804 55.5837 40.092 53.6941 40.4701V41.9816C53.6941 42.3055 53.4241 42.5755 53.1002 42.5755H51.4268C51.1029 42.5755 50.8329 42.3055 50.8329 41.9816V40.524C49.1052 40.3082 47.7556 38.9586 47.5398 37.177C47.5398 37.015 47.5937 36.8531 47.7017 36.745C47.8098 36.637 47.9717 36.5293 48.1337 36.5293H49.7529C50.0229 36.5293 50.2387 36.6912 50.3468 36.9612C50.4549 37.3931 50.8326 37.6631 51.2106 37.6631H52.7222C53.478 37.6631 54.1799 37.1231 54.2338 36.3674C54.2876 35.9354 54.1257 35.5578 53.8557 35.2878C53.5857 34.9639 53.208 34.802 52.7761 34.802H51.6965C49.4291 34.802 47.4857 33.1286 47.2695 30.9689C47.0538 28.7554 48.5115 26.758 50.725 26.3803Z" fill="#054A91"/>
<path d="M25.1353 58.7173L22.058 62.7662C21.6803 63.1981 21.7884 63.8458 22.2203 64.2239L30.318 70.3243C30.8038 70.6481 31.4519 70.5943 31.7757 70.1085L34.8531 66.0596L25.3515 58.8792C25.2973 58.8254 25.1896 58.7715 25.1353 58.7173Z" fill="#054A91"/>
<path d="M64.4361 48.3522L57.0402 50.6734V51.2134C56.9321 53.3188 55.4205 55.0465 53.3694 55.478L52.8836 55.5861C50.1844 56.1261 47.4312 56.5038 44.6778 56.5576L42.4104 56.6115C41.7085 56.6115 41.1147 56.0715 41.1147 55.4238C41.1147 54.7219 41.6547 54.1281 42.3024 54.1281L44.5697 54.0742C47.1609 53.9661 49.8063 53.6423 52.3437 53.1565L52.8295 53.0484C53.7471 52.8327 54.4491 52.0769 54.5029 51.105C54.5567 50.565 54.341 50.0254 53.9629 49.5934C53.5848 49.1615 53.0452 48.9457 52.5052 48.8915L40.6825 48.4595C39.3867 48.4057 38.0371 48.7834 36.9574 49.5934L27.0781 56.6657L37.2813 64.3854L47.2146 65.357C48.9423 65.5189 50.6696 65.0331 52.073 63.9534L66.703 52.6166C67.243 52.1846 67.5668 51.5908 67.6207 50.8889C67.6745 50.1869 67.4588 49.5392 66.973 48.9992C66.3253 48.2984 65.3533 48.0822 64.4357 48.3522L64.4361 48.3522Z" fill="#054A91"/>
</svg>
