<svg width="90" height="90" viewBox="0 0 90 90" fill="none" xmlns="http://www.w3.org/2000/svg">
<circle cx="45" cy="45" r="45" fill="white"/>
<path d="M64.8368 66.2881H49.5686C49.1472 64.6598 47.8746 63.3876 46.2458 62.9666V55.0413C48.0431 52.5714 59.0274 37.1732 59.0274 30.2733C59.0274 22.5822 52.7653 16.332 45.0861 16.332C37.3951 16.332 31.1449 22.5823 31.1449 30.2733C31.1449 37.1822 42.1561 52.6107 43.9232 55.0499V62.968C42.2961 63.3898 41.0252 64.6612 40.6037 66.2882H25.3367C24.6944 66.2882 24.1748 66.8078 24.1748 67.4501C24.1748 68.0923 24.6944 68.6119 25.3367 68.6119H40.6037C41.1221 70.6132 42.9231 72.0974 45.0871 72.0974C47.251 72.0974 49.0521 70.6132 49.57 68.6119H64.8382C65.4804 68.6119 66 68.0923 66 67.4501C66 66.8079 65.4804 66.2882 64.8382 66.2882L64.8368 66.2881ZM38.1151 30.2737C38.1151 26.428 41.2402 23.3029 45.0859 23.3029C48.9313 23.3029 52.0567 26.428 52.0567 30.2737C52.0567 34.1191 48.9316 37.2445 45.0859 37.2445C41.2405 37.2441 38.1151 34.1189 38.1151 30.2737Z" fill="#054A91"/>
</svg>
